<svg xmlns="http://www.w3.org/2000/svg" width="512" height="512" viewBox="0 0 512 512">
  <g transform="rotate(-15 256 420)">
    <rect x="156" y="100" width="200" height="268" rx="18" fill="white" stroke="#C8C8C8" stroke-width="4"/>
    <path d="M211,150 L301,150 L301,175 L263,300 L236,300 L272,175 L211,175 Z" fill="#DB2727"/>
    <rect x="243" y="316" width="26" height="26" rx="3" fill="#DB2727"/>
  </g>

  <g transform="rotate(15 256 420)">
    <rect x="156" y="100" width="200" height="268" rx="18" fill="white" stroke="#C8C8C8" stroke-width="4"/>
    <path d="M211,150 L301,150 L301,175 L263,300 L236,300 L272,175 L211,175 Z" fill="#2070B9"/>
    <circle cx="256" cy="329" r="14" fill="#2070B9"/>
  </g>

  <g transform="translate(0 -12)">
    <rect x="156" y="100" width="200" height="268" rx="18" fill="white" stroke="#C8C8C8" stroke-width="4"/>
    <circle cx="228" cy="205" r="12" fill="#252323"/>
    <circle cx="284" cy="205" r="12" fill="#252323"/>
    <path d="M218,248 Q256,285 294,248" stroke="#252323" stroke-width="10" fill="none" stroke-linecap="round"/>
  </g>
</svg>
